<svg width="85" height="85" viewBox="0 0 85 85" fill="none" xmlns="http://www.w3.org/2000/svg">
<path d="M55.0986 7.71118L83.6035 64.6987C84.5266 66.6135 85.004 68.7122 85 70.8377C85.0009 72.6978 84.6351 74.5399 83.9234 76.2585C83.2117 77.9771 82.1682 79.5386 80.8524 80.8539C79.5366 82.1692 77.9743 83.2123 76.255 83.9237C74.5357 84.6351 72.693 85.0009 70.8323 85C68.2806 85.0024 65.7757 84.3146 63.5834 83.0095C61.3911 81.7044 59.5929 79.8307 58.3794 77.5869L58.3455 77.5327C58.2167 77.2887 58.1016 77.0515 57.9864 76.8008L29.949 20.7756C29.8677 20.6198 29.7863 20.4707 29.7185 20.3217V20.2606C28.8177 18.3542 28.3545 16.2705 28.3628 14.1621C28.3624 11.5871 29.0639 9.06071 30.392 6.8544C31.7202 4.6481 33.6247 2.84535 35.9008 1.63978C36.0907 1.53813 36.2872 1.44332 36.477 1.35523C38.3635 0.464312 40.4238 0.00151571 42.5102 0C45.1144 0.00675076 47.6665 0.729764 49.8869 2.08992C52.1073 3.45008 53.9104 5.39482 55.0986 7.71118Z" fill="#00BABB"/>
<path d="M28.3356 70.7972C28.3356 74.5539 26.8432 78.1567 24.1864 80.8137C21.5296 83.4707 17.926 84.9643 14.1678 84.9661C12.3067 84.9661 10.4638 84.5996 8.74448 83.8875C7.02513 83.1753 5.46302 82.1315 4.14733 80.8157C2.83164 79.4999 1.78817 77.9378 1.07657 76.2188C0.364974 74.4998 -0.000888862 72.6576 1.62162e-06 70.7972C1.62162e-06 67.0412 1.49275 63.439 4.14973 60.7831C6.8067 58.1271 10.4103 56.635 14.1678 56.635C17.9248 56.6368 21.5274 58.1295 24.184 60.785C26.8406 63.4406 28.3338 67.0417 28.3356 70.7972Z" fill="#00BABB"/>
</svg>
