<svg width="225" height="167" viewBox="0 0 225 167" fill="none" xmlns="http://www.w3.org/2000/svg">
<g clip-path="url(#clip0_1_10714)">
<path d="M224.5 146.741H0.5V146.853H224.5V146.741Z" fill="#EBEBEB"/>
<path d="M202.055 153.957H187.226V154.069H202.055V153.957Z" fill="#EBEBEB"/>
<path d="M148.878 155.212H144.98V155.324H148.878V155.212Z" fill="#EBEBEB"/>
<path d="M186.778 149.834H178.177V149.946H186.778V149.834Z" fill="#EBEBEB"/>
<path d="M43.3736 150.551H24.02V150.663H43.3736V150.551Z" fill="#EBEBEB"/>
<path d="M50.1832 150.551H47.3608V150.663H50.1832V150.551Z" fill="#EBEBEB"/>
<path d="M101.39 152.478H59.4121V152.59H101.39V152.478Z" fill="#EBEBEB"/>
<path d="M106.676 126.751H20.1671C19.8318 126.751 19.4997 126.685 19.1899 126.557C18.8801 126.429 18.5986 126.24 18.3615 126.003C18.1243 125.766 17.9362 125.484 17.8079 125.174C17.6796 124.864 17.6135 124.532 17.6135 124.197V2.55475C17.625 1.88079 17.8978 1.23765 18.3742 0.761017C18.8506 0.284383 19.4935 0.0115232 20.1671 0L106.676 0C107.353 0 108.003 0.26916 108.482 0.748269C108.96 1.22738 109.23 1.87719 109.23 2.55475V124.197C109.236 124.534 109.174 124.869 109.048 125.182C108.921 125.494 108.733 125.778 108.495 126.017C108.257 126.255 107.973 126.443 107.66 126.569C107.348 126.696 107.013 126.758 106.676 126.751ZM20.1671 0.0896404C19.5214 0.101388 18.9061 0.366281 18.4537 0.827311C18.0013 1.28834 17.7478 1.90865 17.7479 2.55475V124.197C17.7478 124.843 18.0013 125.463 18.4537 125.924C18.9061 126.385 19.5214 126.65 20.1671 126.662H106.676C107.329 126.662 107.956 126.402 108.418 125.94C108.88 125.478 109.14 124.851 109.14 124.197V2.55475C109.14 1.90096 108.88 1.27395 108.418 0.811654C107.956 0.349357 107.329 0.0896404 106.676 0.0896404H20.1671Z" fill="#EBEBEB"/>
<path d="M203.579 126.751H117.07C116.392 126.751 115.743 126.482 115.264 126.003C114.785 125.524 114.516 124.874 114.516 124.197V2.55475C114.528 1.88079 114.8 1.23765 115.277 0.761017C115.753 0.284383 116.396 0.0115232 117.07 0H203.579C204.256 0 204.905 0.26916 205.384 0.748269C205.863 1.22738 206.132 1.87719 206.132 2.55475V124.197C206.138 124.534 206.076 124.869 205.95 125.182C205.824 125.494 205.636 125.778 205.398 126.017C205.159 126.255 204.875 126.443 204.563 126.569C204.25 126.696 203.916 126.758 203.579 126.751ZM117.07 0.0896404C116.424 0.101388 115.809 0.366281 115.356 0.827311C114.904 1.28834 114.65 1.90865 114.651 2.55475V124.197C114.65 124.843 114.904 125.463 115.356 125.924C115.809 126.385 116.424 126.65 117.07 126.662H203.579C204.232 126.662 204.859 126.402 205.321 125.94C205.783 125.478 206.043 124.851 206.043 124.197V2.55475C206.043 1.90096 205.783 1.27395 205.321 0.811654C204.859 0.349357 204.232 0.0896404 203.579 0.0896404H117.07Z" fill="#EBEBEB"/>
<path d="M130.286 53.3808L192.02 53.3808V12.9396L130.286 12.9396V53.3808Z" fill="#E6E6E6"/>
<path d="M128.404 53.3808L191.124 53.3808V12.9396L128.404 12.9396V53.3808Z" fill="#F0F0F0"/>
<path d="M130.286 61.314L192.02 61.314V53.3764L130.286 53.3764V61.314Z" fill="#E6E6E6"/>
<path d="M125.268 61.314L187.988 61.314V53.3764L125.268 53.3764V61.314Z" fill="#F0F0F0"/>
<path d="M188.481 50.7813V15.5974L131.025 15.5974V50.7813H188.481Z" fill="#FAFAFA"/>
<path d="M175.534 50.7364L168.186 15.5974H156.762L164.065 50.7364H175.534Z" fill="white"/>
<path d="M187.271 48.1369C187.323 48.1264 187.369 48.0982 187.401 48.0573C187.434 48.0163 187.452 47.9652 187.45 47.9128V17.3006C187.45 17.253 187.432 17.2074 187.398 17.1738C187.364 17.1402 187.319 17.1213 187.271 17.1213C187.224 17.1213 187.178 17.1402 187.145 17.1738C187.111 17.2074 187.092 17.253 187.092 17.3006V47.9128C187.091 47.9652 187.108 48.0163 187.141 48.0573C187.174 48.0982 187.22 48.1264 187.271 48.1369Z" fill="#F0F0F0"/>
<path d="M161.601 50.7364L154.298 15.5974H149.818L157.166 50.7364H161.601Z" fill="white"/>
<path d="M131.361 50.7365V15.5526H131.025V50.7365H131.361Z" fill="#E6E6E6"/>
<path opacity="0.6" d="M127.777 19.5416H189.511L189.735 16.6283H128.001L127.777 19.5416Z" fill="#EBEBEB"/>
<path opacity="0.6" d="M127.777 24.3822H189.511L189.735 21.4689H128.001L127.777 24.3822Z" fill="#EBEBEB"/>
<path opacity="0.6" d="M127.777 29.2228H189.511L189.735 26.3094H128.001L127.777 29.2228Z" fill="#EBEBEB"/>
<path opacity="0.6" d="M127.777 34.0633H189.511L189.735 31.15H128.001L127.777 34.0633Z" fill="#EBEBEB"/>
<path opacity="0.6" d="M127.777 38.9039H189.511L189.735 35.9906H128.001L127.777 38.9039Z" fill="#EBEBEB"/>
<path opacity="0.6" d="M127.777 43.7445H189.511L189.735 40.8312H128.001L127.777 43.7445Z" fill="#EBEBEB"/>
<path d="M183.15 117.339H170.202V119.894H183.15V117.339Z" fill="#E6E6E6"/>
<path d="M145.786 146.741H148.161V87.9955H145.786V146.741Z" fill="#E6E6E6"/>
<path d="M137.498 119.939H170.202V117.384H137.498V119.939Z" fill="#F5F5F5"/>
<path d="M183.15 131.323H170.202V133.878H183.15V131.323Z" fill="#E6E6E6"/>
<path d="M137.498 133.878H170.202V131.323H137.498V133.878Z" fill="#F5F5F5"/>
<path d="M183.15 89.4163H170.202V91.971H183.15V89.4163Z" fill="#E6E6E6"/>
<path d="M137.498 91.971H170.202V89.4163H137.498V91.971Z" fill="#F5F5F5"/>
<path d="M183.15 103.4H170.202V105.955H183.15V103.4Z" fill="#E6E6E6"/>
<path d="M137.498 105.91H170.202V103.355H137.498V105.91Z" fill="#F5F5F5"/>
<path d="M178.49 146.741H180.865V87.9955H178.49V146.741Z" fill="#E6E6E6"/>
<path d="M167.828 146.741H170.202V87.9955H167.828V146.741Z" fill="#F5F5F5"/>
<path d="M137.543 146.741H139.917V87.9955H137.543V146.741Z" fill="#F5F5F5"/>
<path d="M29.7543 146.741H54.2151L54.2151 99.2812H29.7543L29.7543 146.741Z" fill="#E6E6E6"/>
<path d="M36.2953 146.741H29.7993V140.198H43.1497L36.2953 146.741Z" fill="#FAFAFA"/>
<path d="M96.4169 146.741H120.878V99.2812H96.4169V146.741Z" fill="#E6E6E6"/>
<path d="M29.7991 144.5H102.151V99.2946H29.7991V144.5Z" fill="#FAFAFA"/>
<path d="M95.6105 146.741H102.151V140.198H88.7561L95.6105 146.741Z" fill="#FAFAFA"/>
<path d="M34.8617 127.469L97.0889 127.469V116.156H34.8617V127.469Z" fill="#F0F0F0"/>
<path d="M34.8617 141.184H97.0889V129.871H34.8617V141.184Z" fill="#F0F0F0"/>
<path d="M85.2617 117.339H46.6889C46.1424 117.339 45.6182 117.122 45.2317 116.735C44.8452 116.349 44.6281 115.824 44.6281 115.278V115.143H87.3225V115.278C87.3225 115.824 87.1054 116.349 86.7189 116.735C86.3324 117.122 85.8083 117.339 85.2617 117.339Z" fill="#FAFAFA"/>
<path d="M34.8617 113.709L97.0889 113.709V102.396H34.8617V113.709Z" fill="#F0F0F0"/>
<path d="M85.2617 103.624H46.6889C46.1424 103.624 45.6182 103.407 45.2317 103.02C44.8452 102.634 44.6281 102.109 44.6281 101.563V101.428H87.3225V101.563C87.3225 102.109 87.1054 102.634 86.7189 103.02C86.3324 103.407 85.8083 103.624 85.2617 103.624Z" fill="#FAFAFA"/>
<path d="M85.2617 131.099H46.6889C46.1424 131.099 45.6182 130.882 45.2317 130.495C44.8452 130.109 44.6281 129.584 44.6281 129.037V128.903H87.3225V129.037C87.3225 129.584 87.1054 130.109 86.7189 130.495C86.3324 130.882 85.8083 131.099 85.2617 131.099Z" fill="#FAFAFA"/>
<path d="M33.6521 53.3808L95.3865 53.3808V12.9396L33.6521 12.9396L33.6521 53.3808Z" fill="#E6E6E6"/>
<path d="M31.7705 53.3808L94.4905 53.3808V12.9396L31.7705 12.9396L31.7705 53.3808Z" fill="#F0F0F0"/>
<path d="M33.6521 61.314L95.3865 61.314V53.3764L33.6521 53.3764V61.314Z" fill="#E6E6E6"/>
<path d="M28.6345 61.314L91.3545 61.314V53.3764L28.6345 53.3764V61.314Z" fill="#F0F0F0"/>
<path d="M91.8921 50.7365V15.5526L34.4361 15.5526V50.7365H91.8921Z" fill="#FAFAFA"/>
<path d="M78.9449 50.7364L71.5977 15.5974H60.1289L67.4761 50.7364H78.9449Z" fill="white"/>
<path d="M90.6824 48.1369C90.7337 48.1264 90.7798 48.0982 90.8125 48.0573C90.8453 48.0163 90.8626 47.9652 90.8616 47.9128V17.3006C90.8616 17.253 90.8427 17.2074 90.8091 17.1738C90.7755 17.1402 90.7299 17.1213 90.6824 17.1213C90.6349 17.1213 90.5893 17.1402 90.5557 17.1738C90.5221 17.2074 90.5032 17.253 90.5032 17.3006V47.9128C90.5032 48.0472 90.548 48.1369 90.6824 48.1369Z" fill="#F0F0F0"/>
<path d="M65.0119 50.7364L57.6647 15.5974H53.2295L60.5767 50.7364H65.0119Z" fill="white"/>
<path d="M34.772 50.7813V15.5974H34.436V50.7813H34.772Z" fill="#E6E6E6"/>
<path opacity="0.6" d="M31.188 19.5416H92.9224L93.1464 16.6283H31.412L31.188 19.5416Z" fill="#EBEBEB"/>
<path opacity="0.6" d="M31.188 21.2448H92.9224L93.1464 18.2866H31.412L31.188 21.2448Z" fill="#EBEBEB"/>
<path opacity="0.6" d="M31.188 22.9031H92.9224L93.1464 19.945H31.412L31.188 22.9031Z" fill="#EBEBEB"/>
<path opacity="0.6" d="M31.188 24.5615H92.9224L93.1464 21.6033H31.412L31.188 24.5615Z" fill="#EBEBEB"/>
<path opacity="0.6" d="M31.188 26.2198H92.9224L93.1464 23.2617H31.412L31.188 26.2198Z" fill="#EBEBEB"/>
<path opacity="0.6" d="M31.188 27.8781H92.9224L93.1464 24.92H31.412L31.188 27.8781Z" fill="#EBEBEB"/>
<path d="M43.508 97.8425H45.6584V74.0474H43.508V97.8425Z" fill="#F5F5F5"/>
<path d="M43.8217 97.8425H44.4041V74.0474H43.8217V97.8425Z" fill="#FAFAFA"/>
<path d="M44.6727 97.8425H44.8967V74.0474H44.6727V97.8425Z" fill="#FAFAFA"/>
<path d="M52.468 99.3215H36.6984C36.6984 98.7985 36.9061 98.2969 37.2758 97.9271C37.6454 97.5572 38.1468 97.3494 38.6696 97.3494H50.4968C51.0196 97.3494 51.521 97.5572 51.8907 97.9271C52.2603 98.2969 52.468 98.7985 52.468 99.3215Z" fill="#F0F0F0"/>
<path d="M40.7304 88.8336C40.8967 88.8336 41.0562 88.7675 41.1739 88.6498C41.2915 88.5321 41.3576 88.3725 41.3576 88.2061V72.6087C41.3576 72.4423 41.2915 72.2827 41.1739 72.165C41.0562 72.0473 40.8967 71.9812 40.7304 71.9812C40.5719 71.9926 40.4237 72.0636 40.3156 72.1801C40.2075 72.2966 40.1476 72.4497 40.148 72.6087V88.2061C40.1418 88.2863 40.1523 88.3669 40.1787 88.4429C40.2052 88.5188 40.2472 88.5885 40.3019 88.6474C40.3566 88.7063 40.4229 88.7533 40.4966 88.7854C40.5704 88.8174 40.65 88.8338 40.7304 88.8336Z" fill="#F0F0F0"/>
<path d="M35.0408 79.6903H54.1256L51.9304 66.3339H37.236L35.0408 79.6903Z" fill="#E0E0E0"/>
<path d="M112.5 167C160.475 167 199.367 164.732 199.367 161.935C199.367 159.138 160.475 156.871 112.5 156.871C64.5246 156.871 25.6328 159.138 25.6328 161.935C25.6328 164.732 64.5246 167 112.5 167Z" fill="#F5F5F5"/>
<path d="M47.1236 66.0783L46.6768 66.1104L47.269 74.3764L47.7159 74.3444L47.1236 66.0783Z" fill="#009595"/>
<path d="M48.0186 78.6342L47.5718 78.6663L47.7947 81.7778L48.2416 81.7457L48.0186 78.6342Z" fill="#009595"/>
<path d="M151.79 116.622H55.8729C54.8024 116.605 53.7761 116.192 52.9907 115.465C52.2053 114.737 51.7161 113.744 51.6169 112.678L46.9129 47.1956C46.8617 46.6879 46.9193 46.1751 47.0821 45.6914C47.2449 45.2077 47.5089 44.7644 47.8567 44.3911C48.2044 44.0177 48.6278 43.7229 49.0986 43.5264C49.5694 43.3299 50.0766 43.2361 50.5865 43.2515H146.503C147.577 43.2589 148.609 43.6677 149.396 44.3975C150.184 45.1274 150.67 46.1254 150.759 47.1956L155.463 112.678C155.507 113.184 155.444 113.694 155.279 114.174C155.114 114.655 154.849 115.095 154.503 115.467C154.157 115.839 153.736 116.134 153.269 116.333C152.802 116.532 152.298 116.63 151.79 116.622Z" fill="#009595"/>
<path d="M152.148 116.622H56.2312C55.1607 116.605 54.1344 116.192 53.349 115.465C52.5636 114.737 52.0744 113.744 51.9752 112.678L47.2712 47.1957C47.2272 46.6894 47.29 46.1795 47.4554 45.6991C47.6208 45.2186 47.8852 44.7783 48.2315 44.4065C48.5778 44.0347 48.9982 43.7398 49.4656 43.5408C49.933 43.3419 50.4369 43.2433 50.9448 43.2515H146.862C147.935 43.2589 148.967 43.6677 149.754 44.3975C150.542 45.1274 151.028 46.1254 151.118 47.1957L155.822 112.678C155.866 113.184 155.803 113.694 155.637 114.175C155.472 114.655 155.208 115.095 154.861 115.467C154.515 115.839 154.095 116.134 153.627 116.333C153.16 116.532 152.656 116.63 152.148 116.622Z" fill="#009595"/>
<path opacity="0.5" d="M152.148 116.622H56.2312C55.1607 116.605 54.1344 116.192 53.349 115.465C52.5636 114.737 52.0744 113.744 51.9752 112.678L47.2712 47.1957C47.2272 46.6894 47.29 46.1795 47.4554 45.6991C47.6208 45.2186 47.8852 44.7783 48.2315 44.4065C48.5778 44.0347 48.9982 43.7398 49.4656 43.5408C49.933 43.3419 50.4369 43.2433 50.9448 43.2515H146.862C147.935 43.2589 148.967 43.6677 149.754 44.3975C150.542 45.1274 151.028 46.1254 151.118 47.1957L155.822 112.678C155.866 113.184 155.803 113.694 155.637 114.175C155.472 114.655 155.208 115.095 154.861 115.467C154.515 115.839 154.095 116.134 153.627 116.333C153.16 116.532 152.656 116.63 152.148 116.622Z" fill="white"/>
<path d="M147.041 45.2236H50.7655C48.3015 45.4029 48.7943 49.1677 51.3031 49.1677H147.399C149.863 49.1677 149.818 45.4029 147.354 45.2236H147.041Z" fill="#009595"/>
<path d="M53.588 47.1957C53.5941 47.3112 53.5766 47.4268 53.5365 47.5353C53.4965 47.6439 53.4347 47.7431 53.3551 47.827C53.2754 47.9109 53.1795 47.9777 53.0732 48.0232C52.9669 48.0688 52.8524 48.0922 52.7368 48.0921C52.493 48.0835 52.2602 47.9887 52.0797 47.8246C51.8993 47.6605 51.7828 47.4376 51.7512 47.1957C51.7451 47.0801 51.7626 46.9645 51.8026 46.856C51.8427 46.7474 51.9044 46.6482 51.9841 46.5643C52.0637 46.4804 52.1596 46.4137 52.2659 46.3681C52.3723 46.3225 52.4867 46.2991 52.6024 46.2993C52.8461 46.3078 53.0789 46.4026 53.2594 46.5667C53.4399 46.7308 53.5563 46.9537 53.588 47.1957Z" fill="#FAFAFA"/>
<path d="M56.6345 47.1957C56.6471 47.3089 56.6357 47.4235 56.6009 47.532C56.566 47.6405 56.5087 47.7403 56.4325 47.825C56.3563 47.9097 56.263 47.9773 56.1589 48.0233C56.0547 48.0693 55.942 48.0928 55.8281 48.0921C55.5843 48.0835 55.3515 47.9887 55.171 47.8246C54.9906 47.6605 54.8742 47.4376 54.8425 47.1957C54.8364 47.0801 54.8539 46.9645 54.894 46.856C54.934 46.7474 54.9957 46.6482 55.0754 46.5643C55.155 46.4804 55.2509 46.4137 55.3573 46.3681C55.4636 46.3225 55.578 46.2991 55.6937 46.2993C55.9356 46.299 56.1684 46.392 56.3436 46.5589C56.5188 46.7258 56.623 46.9539 56.6345 47.1957Z" fill="#FAFAFA"/>
<path d="M59.7257 47.1956C59.739 47.3127 59.7265 47.4313 59.6891 47.5431C59.6517 47.6549 59.5903 47.757 59.5091 47.8425C59.428 47.9279 59.3291 47.9946 59.2195 48.0377C59.1098 48.0808 58.9921 48.0994 58.8745 48.092C58.6357 48.0822 58.4086 47.9858 58.2356 47.8209C58.0625 47.656 57.9552 47.4338 57.9337 47.1956C57.921 47.0824 57.9325 46.9678 57.9673 46.8593C58.0022 46.7508 58.0595 46.651 58.1357 46.5663C58.2119 46.4816 58.3052 46.414 58.4093 46.368C58.5135 46.322 58.6262 46.2985 58.7401 46.2992C58.9867 46.2982 59.2247 46.3897 59.4072 46.5557C59.5896 46.7216 59.7033 46.95 59.7257 47.1956Z" fill="#FAFAFA"/>
<path d="M149.639 110.078H57.844C57.4533 110.07 57.079 109.92 56.7906 109.656C56.5022 109.392 56.3194 109.033 56.276 108.644L52.4232 54.8151C52.4043 54.6334 52.4239 54.4498 52.4807 54.2763C52.5375 54.1027 52.6302 53.9431 52.7528 53.8078C52.8753 53.6724 53.0251 53.5645 53.1921 53.4909C53.3592 53.4173 53.5399 53.3798 53.7224 53.3808H145.518C145.908 53.3893 146.283 53.5393 146.571 53.8031C146.859 54.0669 147.042 54.4265 147.086 54.8151L150.938 108.644C150.957 108.826 150.938 109.009 150.881 109.183C150.824 109.356 150.731 109.516 150.609 109.651C150.486 109.787 150.337 109.895 150.17 109.968C150.002 110.042 149.822 110.079 149.639 110.078Z" fill="white"/>
<path d="M110.932 89.5507L109.454 68.799L104.929 66.0649H92.4744L94.1768 89.5507H110.932Z" fill="white"/>
<path d="M110.932 89.7748H94.1769C94.1245 89.7759 94.0734 89.7585 94.0324 89.7258C93.9915 89.693 93.9634 89.6469 93.9529 89.5955L92.2505 66.1098C92.2505 66.0201 92.2505 65.9753 92.2953 65.9305H105.018L109.543 68.6645C109.633 68.7093 109.678 68.7542 109.678 68.8438L111.156 89.5955C111.163 89.6587 111.147 89.7222 111.111 89.7748H110.932ZM94.3561 89.3714H110.708L109.23 68.9334L104.884 66.289H92.6985L94.3561 89.3714Z" fill="#009595"/>
<path d="M109.454 68.799L104.929 66.0649L106.586 69.6954L109.454 68.799Z" fill="#EBEBEB"/>
<path d="M106.586 69.9195C106.497 69.9195 106.407 69.8747 106.407 69.785L104.705 66.1546C104.705 66.1098 104.705 65.9753 104.794 65.9305C104.802 65.9091 104.816 65.89 104.833 65.8752C104.851 65.8603 104.872 65.8502 104.894 65.8457C104.916 65.8412 104.94 65.8425 104.961 65.8495C104.983 65.8565 105.003 65.869 105.018 65.8857L109.543 68.6197C109.586 68.6383 109.622 68.6699 109.646 68.7101C109.671 68.7503 109.681 68.7971 109.678 68.8438C109.678 68.9334 109.588 68.9783 109.498 69.0231L106.631 69.9195H106.586ZM105.422 66.6476L106.721 69.4265L108.916 68.7542L105.422 66.6476Z" fill="#009595"/>
<path d="M99.5081 76.6873C99.5142 76.8087 99.4955 76.9301 99.4532 77.0441C99.4109 77.1581 99.3458 77.2623 99.262 77.3503C99.1782 77.4384 99.0774 77.5085 98.9656 77.5563C98.8539 77.6041 98.7336 77.6287 98.6121 77.6285C98.3565 77.6199 98.1124 77.5203 97.9236 77.3478C97.7347 77.1753 97.6135 76.9412 97.5817 76.6873C97.5757 76.5637 97.5941 76.4401 97.6359 76.3236C97.6776 76.207 97.742 76.0999 97.8252 76.0083C97.9085 75.9168 98.0089 75.8425 98.1209 75.7898C98.2328 75.7371 98.3541 75.707 98.4777 75.7013C98.7402 75.7113 98.9899 75.8172 99.1798 75.9988C99.3696 76.1805 99.4864 76.4254 99.5081 76.6873Z" fill="#009595"/>
<path d="M105.646 76.6873C105.652 76.8087 105.633 76.9301 105.591 77.0441C105.549 77.1581 105.483 77.2623 105.4 77.3503C105.316 77.4384 105.215 77.5085 105.103 77.5563C104.992 77.6041 104.871 77.6287 104.75 77.6285C104.502 77.6097 104.269 77.5056 104.089 77.3341C103.909 77.1625 103.794 76.9339 103.764 76.6873C103.752 76.566 103.764 76.4434 103.801 76.3271C103.838 76.2108 103.898 76.1032 103.977 76.0109C104.057 75.9186 104.155 75.8435 104.264 75.7903C104.374 75.737 104.494 75.7067 104.615 75.7013C104.878 75.7113 105.128 75.8172 105.317 75.9988C105.507 76.1805 105.624 76.4254 105.646 76.6873Z" fill="#009595"/>
<path d="M107.393 82.8277C107.333 82.8277 107.276 82.8041 107.234 82.7621C107.192 82.72 107.169 82.663 107.169 82.6036C107.079 81.0797 104.66 79.8696 101.838 79.8696C99.956 79.8696 98.2984 80.4074 97.4472 81.3038C97.2783 81.4736 97.1471 81.6771 97.0622 81.9011C96.9773 82.1251 96.9406 82.3645 96.9544 82.6036C96.9544 82.663 96.9308 82.72 96.8888 82.7621C96.8468 82.8041 96.7898 82.8277 96.7304 82.8277C96.671 82.8277 96.614 82.8041 96.572 82.7621C96.53 82.72 96.5064 82.663 96.5064 82.6036C96.4962 82.3062 96.5466 82.0098 96.6544 81.7324C96.7622 81.455 96.9252 81.2025 97.1336 80.9901C98.0296 80.0488 99.8664 79.4214 101.838 79.4214C104.929 79.4214 107.482 80.8108 107.617 82.6036C107.617 82.663 107.593 82.72 107.551 82.7621C107.509 82.8041 107.452 82.8277 107.393 82.8277Z" fill="#009595"/>
<path d="M96.0137 74.76C95.979 74.76 95.9447 74.7519 95.9136 74.7364C95.8825 74.7208 95.8554 74.6982 95.8345 74.6704C95.7449 74.6256 95.7449 74.4463 95.8345 74.3567L96.7753 73.3706C96.8161 73.3309 96.8685 73.3051 96.9248 73.2971C96.9812 73.289 97.0387 73.2991 97.0889 73.3258C97.13 73.3677 97.153 73.424 97.153 73.4827C97.153 73.5413 97.13 73.5976 97.0889 73.6395L96.1481 74.6704L96.0137 74.76Z" fill="#009595"/>
<path d="M106.945 74.76L106.81 74.6704L105.69 73.6395C105.601 73.5947 105.601 73.4603 105.69 73.3706C105.731 73.3309 105.784 73.3051 105.84 73.2971C105.896 73.289 105.954 73.2991 106.004 73.3258L107.079 74.3567C107.12 74.3985 107.143 74.4549 107.143 74.5135C107.143 74.5722 107.12 74.6285 107.079 74.6704L106.945 74.76Z" fill="#009595"/>
<path d="M91.1304 94.212H92.116L93.5944 96.1393L93.46 94.212H94.4456L94.7144 97.708H93.684L92.2504 95.7807L92.3848 97.708H91.3544L91.1304 94.212Z" fill="#009595"/>
<path d="M95.1625 95.96C95.1176 95.7227 95.1299 95.4781 95.1981 95.2464C95.2663 95.0148 95.3886 94.8026 95.5549 94.6275C95.7211 94.4524 95.9266 94.3194 96.1544 94.2393C96.3821 94.1593 96.6257 94.1346 96.8649 94.1672C97.3675 94.1378 97.8629 94.2977 98.2537 94.6154C98.4296 94.7914 98.568 95.0013 98.6604 95.2325C98.7529 95.4636 98.7974 95.7111 98.7913 95.96C98.8456 96.2947 98.7988 96.6381 98.6569 96.946C98.613 97.0809 98.543 97.2058 98.4507 97.3135C98.3584 97.4212 98.2458 97.5095 98.1193 97.5735C97.8279 97.7218 97.5054 97.7986 97.1785 97.7976C96.8224 97.8027 96.4699 97.726 96.1481 97.5735C95.8663 97.4582 95.6302 97.2535 95.4761 96.9909C95.2925 96.6765 95.1851 96.3234 95.1625 95.96ZM96.2825 95.96C96.2616 96.2328 96.3413 96.5038 96.5065 96.7219C96.5734 96.8118 96.6618 96.8834 96.7635 96.9304C96.8652 96.9774 96.9771 96.9981 97.0889 96.9909C97.1886 97.0015 97.2892 96.9815 97.3773 96.9335C97.4653 96.8854 97.5366 96.8116 97.5817 96.7219C97.6605 96.6049 97.7132 96.4723 97.7364 96.3332C97.7596 96.194 97.7527 96.0514 97.7161 95.9152C97.7342 95.6564 97.6542 95.4004 97.4921 95.198C97.3291 95.0592 97.1236 94.9802 96.9097 94.9739C96.8155 94.9686 96.7215 94.9862 96.6357 95.0252C96.5498 95.0643 96.4747 95.1236 96.4169 95.198C96.3443 95.3094 96.2949 95.4343 96.2718 95.5653C96.2487 95.6962 96.2524 95.8305 96.2825 95.96Z" fill="#009595"/>
<path d="M100.942 94.212H102.51C102.785 94.2013 103.059 94.247 103.316 94.3465L103.809 94.705C103.956 94.8731 104.063 95.0723 104.122 95.2877C104.214 95.5 104.259 95.729 104.257 95.96C104.316 96.2429 104.301 96.5365 104.212 96.8116C104.144 97.01 104.038 97.1929 103.898 97.3494C103.761 97.4811 103.591 97.5739 103.406 97.6184C103.205 97.6894 102.991 97.7199 102.778 97.708H101.166L100.942 94.212ZM102.062 95.0188L102.196 96.946H102.465L102.958 96.8564C103.004 96.8264 103.045 96.787 103.075 96.7407C103.106 96.6944 103.127 96.6422 103.137 96.5875C103.205 96.3855 103.22 96.1696 103.182 95.96C103.202 95.6872 103.123 95.4162 102.958 95.1981C102.779 95.0616 102.555 94.9976 102.33 95.0188H102.062Z" fill="#009595"/>
<path d="M106.855 97.1253H105.646L105.511 97.708H104.391L105.466 94.212H106.676L108.244 97.708H107.079L106.855 97.1253ZM106.586 96.3634L106.138 95.1084L105.825 96.3634H106.586Z" fill="#009595"/>
<path d="M107.751 94.212H111.022L111.111 95.0636H109.991L110.17 97.708H109.095L108.916 95.0636H107.796L107.751 94.212Z" fill="#009595"/>
<path d="M113.575 97.1253H112.321L112.187 97.708H111.111L112.142 94.212H113.351L114.919 97.708H113.799L113.575 97.1253ZM113.262 96.3634L112.814 95.1084L112.5 96.3634H113.262Z" fill="#009595"/>
</g>
<defs>
<clipPath id="clip0_1_10714">
<rect width="224" height="167" fill="white" transform="translate(0.5)"/>
</clipPath>
</defs>
</svg>
