<svg width="172" height="147" viewBox="0 0 172 147" fill="none" xmlns="http://www.w3.org/2000/svg">
<path d="M69.4098 100.081L68.6561 99.5054L68.0414 100.228C66 102.626 63.4542 104.552 60.5822 105.87C57.7101 107.188 54.5816 107.865 51.4169 107.855H51.4137C45.5988 107.855 40.0234 105.562 35.9137 101.482C31.8043 97.4035 29.4971 91.8734 29.4971 86.1083C29.4971 80.3432 31.8043 74.8131 35.9137 70.7342C40.0234 66.655 45.5988 64.3613 51.4137 64.3613C52.2317 64.3613 53.0704 64.4168 53.903 64.4955L54.8253 64.5827L54.9826 63.6696C56.3821 55.5436 60.4215 48.0936 66.4862 42.4572C72.5511 36.8208 80.3081 33.307 88.5743 32.4544C96.8405 31.6017 105.16 33.4572 112.264 37.7359C119.368 42.0145 124.865 48.482 127.918 56.1493L128.169 56.7794H128.847H129.621C129.621 56.7794 129.621 56.7794 129.622 56.7794C136.444 56.7809 142.986 59.4676 147.812 64.2495C152.637 69.0311 155.354 75.5162 155.367 82.281C155.363 89.0535 152.651 95.5489 147.824 100.34C142.995 105.131 136.446 107.824 129.616 107.826C129.616 107.826 129.616 107.826 129.616 107.826H111.466H111.463H111.459H111.454H111.45H111.444H111.439H111.433H111.426H111.419H111.412H111.404H111.395H111.387H111.378H111.368H111.358H111.347H111.337H111.325H111.313H111.301H111.289H111.276H111.262H111.248H111.234H111.22H111.205H111.189H111.173H111.157H111.14H111.123H111.106H111.088H111.07H111.051H111.032H111.012H110.993H110.972H110.952H110.931H110.91H110.888H110.866H110.843H110.82H110.797H110.774H110.75H110.725H110.701H110.676H110.65H110.624H110.598H110.572H110.545H110.518H110.49H110.462H110.434H110.406H110.377H110.347H110.318H110.288H110.258H110.227H110.196H110.165H110.133H110.101H110.069H110.037H110.004H109.97H109.937H109.903H109.869H109.835H109.8H109.765H109.729H109.694H109.658H109.621H109.585H109.548H109.511H109.473H109.435H109.397H109.359H109.32H109.281H109.242H109.203H109.163H109.123H109.083H109.042H109.001H108.96H108.919H108.877H108.835H108.793H108.75H108.708H108.665H108.621H108.578H108.534H108.49H108.446H108.401H108.357H108.312H108.266H108.221H108.175H108.129H108.083H108.037H107.99H107.943H107.896H107.849H107.801H107.753H107.705H107.657H107.609H107.56H107.511H107.462H107.413H107.363H107.314H107.264H107.213H107.163H107.113H107.062H107.011H106.96H106.909H106.857H106.805H106.754H106.702H106.649H106.597H106.544H106.492H106.439H106.385H106.332H106.279H106.225H106.171H106.117H106.063H106.009H105.954H105.9H105.845H105.79H105.735H105.68H105.624H105.569H105.513H105.457H105.401H105.345H105.289H105.233H105.176H105.119H105.063H105.006H104.949H104.892H104.834H104.777H104.719H104.662H104.604H104.546H104.488H104.43H104.372H104.313H104.255H104.196H104.138H104.079H104.02H103.961H103.902H103.843H103.784H103.724H103.665H103.605H103.546H103.486H103.426H103.367H103.307H103.247H103.187H103.126H103.066H103.006H102.946H102.885H102.825H102.764H102.704H102.643H102.582H102.521H102.461H102.4H102.339H102.278H102.217H102.156H102.095H102.033H101.972H101.911H101.85H101.789H101.727H101.666H101.604H101.543H101.482H101.42H101.359H101.297H101.236H101.174H101.113H101.051H100.989H100.928H100.866H100.805H100.743H100.681H100.62H100.558H100.497H100.435H100.374H100.312H100.25H100.189H100.127H100.066H100.004H99.9428H99.8813H99.8199H99.7585H99.6971H99.6357H99.5744H99.5131H99.4519H99.3906H99.3295H99.2683H99.2072H99.1461H99.0851H99.0241H98.9632H98.9023H98.8415H98.7807H98.72H98.6594H98.5988H98.5382H98.4778H98.4174H98.357H98.2967H98.2365H98.1764H98.1163H98.0563H97.9964H97.9366H97.8768H97.8172H97.7576H97.6981H97.6386H97.5793H97.5201H97.4609H97.4019H97.3429H97.2841H97.2253H97.1667H97.1081H97.0497H96.9914H96.9331H96.875H96.817H96.7591H96.7013H96.6437H96.5862H96.5287H96.4714H96.4143H96.3572H96.3003H96.2435H96.1869H96.1304H96.074H96.0177H95.9616H95.9057H95.8498H95.7942H95.7386H95.6832H95.628H95.5729H95.518H95.4632H95.4086H95.3541H95.2998H95.2457H95.1917H95.1379H95.0843H95.0308H94.9775H94.9244H94.8714H94.8187H94.7661H94.7137H94.6614H94.6094H94.5575H94.5058H94.4543H94.403H94.3519H94.301H94.2503H94.1998H94.1495H94.0993H94.0494H93.9997H93.9502H93.9009H93.8519H93.803H93.7543H93.7059H93.6577H93.6097H93.5619H93.5143H93.467H93.4199H93.373H93.3263H93.2799H93.2337H93.1878H93.1421H93.0966H93.0514H93.0064H92.9616H92.9171H92.8729H92.8289H92.7851H92.7416H92.6984H92.6554H92.6127H92.5702H92.528H92.486H92.4444H92.403H92.3618H92.3209H92.2803H92.24H92.2H92.1602H92.1207H92.0815H92.0426H92.004H91.9656H91.9275H91.8898H91.8523H91.8151H91.7782H91.7416H91.7053H91.6693H91.6337H91.5983H91.5632H91.5284H91.494H91.4598H91.426H91.3925H91.3593H91.3264H91.2939H91.2616H91.2297H91.1981H91.1669H91.1359H91.1053H91.0751H91.0452H91.0156H90.9863H90.9574H90.9288H90.9006H90.8727H90.8452H90.818H90.7912H90.7647H90.7386H90.7128H90.6874H90.6624H90.6377H90.6134H90.5894H90.5658H90.5426H90.5197H90.4973H90.4752H90.4534H90.4321H90.4111H90.3905H90.3703H90.3505H90.3311H90.312H90.2934H90.2751H90.2572H90.2398H90.2227H90.206H90.1898H90.1739H90.1584H90.1434H90.1287H90.1145H90.1006H90.0872H90.0742H90.0616H90.0495H90.0377H90.0264H90.0155H90.005H89.995H89.9854H89.9762H89.9675H89.9591H89.9513H89.9438H89.9368H89.9303H89.9242H89.9185H89.9171C82.1529 107.51 75.618 104.822 69.4098 100.081Z" fill="white" stroke="#91A4BC" stroke-width="2"/>
<line x1="94.0935" y1="94.7028" x2="94.0935" y2="67.7658" stroke="#91A4BC" stroke-width="2" stroke-linecap="round" stroke-linejoin="round"/>
<path d="M101.753 73.3423L94.464 66.1443C94.0746 65.7597 93.4482 65.7597 93.0587 66.1443L85.7695 73.3423" stroke="#91A4BC" stroke-width="2" stroke-linecap="round" stroke-linejoin="round"/>
<path d="M112.403 87.4955H76.4563C72.5903 87.4955 69.4563 90.6295 69.4563 94.4955V139C69.4563 142.866 72.5903 146 76.4563 146H107.165C107.698 146 108.21 145.787 108.586 145.408L118.824 135.072C119.195 134.698 119.403 134.192 119.403 133.665V94.4955C119.403 90.6295 116.269 87.4955 112.403 87.4955Z" fill="#E9EDF5" stroke="#91A4BC" stroke-width="2"/>
<path d="M119.069 132.532H110.081C108.424 132.532 107.081 133.875 107.081 135.532V144.572L119.069 132.532Z" fill="white"/>
<path d="M119.069 132.532H110.081C108.424 132.532 107.081 133.875 107.081 135.532V145.685" stroke="#91A4BC" stroke-width="2"/>
<path d="M95.0935 103.594L107.081 103.594" stroke="#91A4BC" stroke-width="2" stroke-linecap="round"/>
<path d="M81.7781 111.486H107.086" stroke="#91A4BC" stroke-width="2" stroke-linecap="round"/>
<path d="M81.7781 119.377H107.086" stroke="#91A4BC" stroke-width="2" stroke-linecap="round"/>
<path d="M81.7781 127.27H107.086" stroke="#91A4BC" stroke-width="2" stroke-linecap="round"/>
<path d="M17.6442 42.706C17.016 42.706 16.5067 42.2031 16.5067 41.5828C16.5067 40.9624 17.016 40.4595 17.6442 40.4595C18.2725 40.4595 18.7817 40.9624 18.7817 41.5828C18.7817 42.2031 18.2725 42.706 17.6442 42.706Z" stroke="#91A4BC" stroke-width="2" stroke-miterlimit="2.613"/>
<path fill-rule="evenodd" clip-rule="evenodd" d="M168.345 40.4416C167.642 40.4392 166.968 40.1622 166.471 39.6711C165.974 39.18 165.693 38.5146 165.691 37.8202C165.693 37.1257 165.974 36.4603 166.471 35.9692C166.968 35.4781 167.642 35.2012 168.345 35.1987C169.049 35.2012 169.722 35.4781 170.22 35.9692C170.717 36.4603 170.998 37.1257 171 37.8202C170.998 38.5146 170.717 39.18 170.22 39.6711C169.722 40.1622 169.049 40.4392 168.345 40.4416Z" stroke="#91A4BC" stroke-width="2" stroke-miterlimit="2.613"/>
<path d="M157.504 3.24656C156.876 3.24656 156.367 2.74365 156.367 2.12328C156.367 1.50291 156.876 1 157.504 1C158.133 1 158.642 1.50291 158.642 2.12328C158.642 2.74365 158.133 3.24656 157.504 3.24656Z" stroke="#91A4BC" stroke-width="2" stroke-miterlimit="2.613"/>
<path d="M136.193 16.3997C135.565 16.3997 135.055 15.8968 135.055 15.2764C135.055 14.656 135.565 14.1531 136.193 14.1531C136.821 14.1531 137.33 14.656 137.33 15.2764C137.33 15.8968 136.821 16.3997 136.193 16.3997Z" stroke="#91A4BC" stroke-width="2" stroke-miterlimit="2.613"/>
<path d="M46.0002 46.0863C45.1623 46.0863 44.4831 45.4156 44.4831 44.5882C44.4831 43.7608 45.1623 43.09 46.0002 43.09C46.8381 43.09 47.5173 43.7608 47.5173 44.5882C47.5173 45.4156 46.8381 46.0863 46.0002 46.0863Z" stroke="#91A4BC" stroke-width="2" stroke-miterlimit="2.613"/>
<path fill-rule="evenodd" clip-rule="evenodd" d="M4.79209 77.0374C3.78689 77.0356 2.82337 76.6406 2.11259 75.9387C1.4018 75.2368 1.00171 74.2853 0.999948 73.2927C1.00171 72.3001 1.4018 71.3486 2.11259 70.6467C2.82337 69.9448 3.78689 69.5497 4.79209 69.548C5.79683 69.5497 6.75995 69.9444 7.47066 70.6458C8.18136 71.3471 8.58176 72.2979 8.58423 73.29C8.58317 74.2831 8.18339 75.2353 7.47253 75.9377C6.76167 76.6402 5.79775 77.0356 4.79209 77.0374V77.0374Z" stroke="#91A4BC" stroke-width="2" stroke-miterlimit="2.613"/>
</svg>
