<svg width="18" height="18" viewBox="0 0 18 18" fill="none" xmlns="http://www.w3.org/2000/svg">
<path fill-rule="evenodd" clip-rule="evenodd" d="M16.9574 0.905572C16.9967 0.935803 17.0327 0.969707 17.0649 1.00667C17.1802 1.13854 17.25 1.31111 17.25 1.49999V7.33332C17.25 7.74754 16.9142 8.08332 16.5 8.08332C16.0858 8.08332 15.75 7.74754 15.75 7.33332V3.31065L9.53033 9.53032C9.23744 9.82321 8.76256 9.82321 8.46967 9.53032C8.17678 9.23743 8.17678 8.76255 8.46967 8.46966L14.6893 2.24999H10.6667C10.2525 2.24999 9.91667 1.9142 9.91667 1.49999C9.91667 1.08578 10.2525 0.749991 10.6667 0.749991H16.4944C16.5141 0.749841 16.5338 0.750465 16.5535 0.751872C16.705 0.762553 16.844 0.818212 16.9574 0.905572Z" fill="#0172B4"/>
<path fill-rule="evenodd" clip-rule="evenodd" d="M0.75 3.16666C0.75 1.83161 1.83162 0.749991 3.16667 0.749991H6.5C6.91421 0.749991 7.25 1.08578 7.25 1.49999C7.25 1.9142 6.91421 2.24999 6.5 2.24999H3.16667C2.66005 2.24999 2.25 2.66004 2.25 3.16666V14.8333C2.25 15.3399 2.66005 15.75 3.16667 15.75H14.8333C15.34 15.75 15.75 15.3399 15.75 14.8333V11.5C15.75 11.0858 16.0858 10.75 16.5 10.75C16.9142 10.75 17.25 11.0858 17.25 11.5V14.8333C17.25 16.1684 16.1684 17.25 14.8333 17.25H3.16667C1.83162 17.25 0.75 16.1684 0.75 14.8333V3.16666Z" fill="#0172B4"/>
</svg>
