<svg width="14" height="14" viewBox="0 0 14 14" fill="none" xmlns="http://www.w3.org/2000/svg">
<path fill-rule="evenodd" clip-rule="evenodd" d="M0.636418 0.636326C0.929311 0.343433 1.40418 0.343433 1.69708 0.636326L13.3637 12.303C13.6566 12.5959 13.6566 13.0708 13.3637 13.3637C13.0709 13.6565 12.596 13.6565 12.3031 13.3637L0.636418 1.69699C0.343525 1.40409 0.343525 0.92922 0.636418 0.636326Z" fill="#4C4C4C"/>
<path fill-rule="evenodd" clip-rule="evenodd" d="M13.3637 0.636326C13.6566 0.92922 13.6566 1.40409 13.3637 1.69699L1.69708 13.3637C1.40418 13.6565 0.929311 13.6565 0.636418 13.3637C0.343525 13.0708 0.343525 12.5959 0.636418 12.303L12.3031 0.636326C12.596 0.343433 13.0709 0.343433 13.3637 0.636326Z" fill="#4C4C4C"/>
</svg>
