<svg width="18" height="18" viewBox="0 0 18 18" fill="none" xmlns="http://www.w3.org/2000/svg">
<path fill-rule="evenodd" clip-rule="evenodd" d="M4.08158 6.49834C4.08158 5.16365 5.16356 4.08168 6.49825 4.08168H14.8364C16.1711 4.08168 17.2531 5.16365 17.2531 6.49834V14.8365C17.2531 16.1712 16.1711 17.2532 14.8364 17.2532H6.49825C5.16356 17.2532 4.08158 16.1712 4.08158 14.8365V6.49834ZM6.49825 5.58168C5.99199 5.58168 5.58158 5.99208 5.58158 6.49834V14.8365C5.58158 15.3428 5.99199 15.7532 6.49825 15.7532H14.8364C15.3427 15.7532 15.7531 15.3428 15.7531 14.8365V6.49834C15.7531 5.99208 15.3427 5.58168 14.8364 5.58168H6.49825Z" fill="#0172B4"/>
<path fill-rule="evenodd" clip-rule="evenodd" d="M3.16394 2.24713C2.6573 2.24713 2.24658 2.65785 2.24658 3.16449V11.5013C2.24658 12.0079 2.6573 12.4187 3.16394 12.4187H4.8313C5.24552 12.4187 5.5813 12.7544 5.5813 13.1687C5.5813 13.5829 5.24552 13.9187 4.8313 13.9187H3.16394C1.82887 13.9187 0.746582 12.8364 0.746582 11.5013V3.16449C0.746582 1.82942 1.82887 0.747131 3.16394 0.747131H11.5007C12.8358 0.747131 13.9181 1.82942 13.9181 3.16449V4.83185C13.9181 5.24607 13.5823 5.58185 13.1681 5.58185C12.7539 5.58185 12.4181 5.24607 12.4181 4.83185V3.16449C12.4181 2.65785 12.0074 2.24713 11.5007 2.24713H3.16394Z" fill="#0172B4"/>
</svg>
