<svg width="12" height="12" viewBox="0 0 12 12" fill="none" xmlns="http://www.w3.org/2000/svg">
<path fill-rule="evenodd" clip-rule="evenodd" d="M5.37193 1.26439C3.10316 1.26439 1.26396 3.10359 1.26396 5.37235C1.26396 7.64112 3.10316 9.48031 5.37193 9.48031C7.64069 9.48031 9.47989 7.64112 9.47989 5.37235C9.47989 3.10359 7.64069 1.26439 5.37193 1.26439ZM0.0639648 5.37235C0.0639648 2.44085 2.44042 0.0643921 5.37193 0.0643921C8.30343 0.0643921 10.6799 2.44085 10.6799 5.37235C10.6799 8.30386 8.30343 10.6803 5.37193 10.6803C2.44042 10.6803 0.0639648 8.30386 0.0639648 5.37235Z" fill="#4C4C4C"/>
<path fill-rule="evenodd" clip-rule="evenodd" d="M8.27616 8.27692C8.51047 8.04261 8.89037 8.04261 9.12469 8.27692L11.7591 10.9114C11.9934 11.1457 11.9934 11.5256 11.7591 11.7599C11.5248 11.9942 11.1449 11.9942 10.9106 11.7599L8.27616 9.12545C8.04184 8.89113 8.04184 8.51123 8.27616 8.27692Z" fill="#4C4C4C"/>
</svg>
