<svg width="20" height="14" viewBox="0 0 20 14" fill="none" xmlns="http://www.w3.org/2000/svg">
<path fill-rule="evenodd" clip-rule="evenodd" d="M10.0001 1.91666C8.18146 1.9177 6.56519 3.07619 5.98003 4.79812C5.88836 5.06788 5.65175 5.26241 5.36936 5.30019C3.68142 5.52598 2.42012 6.96443 2.41675 8.66733C2.41711 10.554 3.94667 12.0833 5.83341 12.0833H6.66675C7.08096 12.0833 7.41675 12.4191 7.41675 12.8333C7.41675 13.2475 7.08096 13.5833 6.66675 13.5833H5.83341C3.11857 13.5833 0.917648 11.383 0.91675 8.66832M0.916748 8.66666C0.916748 8.66621 0.916748 8.66576 0.916749 8.66532C0.92086 6.36516 2.51803 4.39973 4.72134 3.89472C5.62148 1.79867 7.69003 0.417785 9.99971 0.416656C9.99959 0.416656 9.99984 0.416656 9.99971 0.416656C12.9423 0.416657 15.369 2.62705 15.7093 5.47802C17.6264 5.81374 19.0834 7.48671 19.0834 9.49999C19.0834 11.7552 17.2552 13.5833 15.0001 13.5833H13.3334C12.9192 13.5833 12.5834 13.2475 12.5834 12.8333C12.5834 12.4191 12.9192 12.0833 13.3334 12.0833H15.0001C16.4268 12.0833 17.5834 10.9267 17.5834 9.49999C17.5834 8.07326 16.4268 6.91666 15.0001 6.91666C14.5859 6.91666 14.2501 6.58087 14.2501 6.16666C14.2501 3.81957 12.3471 1.91685 10.0001 1.91666" fill="white"/>
<path fill-rule="evenodd" clip-rule="evenodd" d="M9.46979 8.13634C9.76268 7.84344 10.2376 7.84344 10.5305 8.13634L12.1971 9.803C12.49 10.0959 12.49 10.5708 12.1971 10.8637C11.9042 11.1566 11.4294 11.1566 11.1365 10.8637L10.0001 9.72733L8.86379 10.8637C8.57089 11.1566 8.09602 11.1566 7.80313 10.8637C7.51023 10.5708 7.51023 10.0959 7.80313 9.803L9.46979 8.13634Z" fill="white"/>
<path fill-rule="evenodd" clip-rule="evenodd" d="M10.0001 7.91665C10.4143 7.91665 10.7501 8.25243 10.7501 8.66665V12.8333C10.7501 13.2475 10.4143 13.5833 10.0001 13.5833C9.58587 13.5833 9.25008 13.2475 9.25008 12.8333V8.66665C9.25008 8.25243 9.58587 7.91665 10.0001 7.91665Z" fill="white"/>
</svg>
